<svg xmlns="http://www.w3.org/2000/svg" version="1.1" xmlns:xlink="http://www.w3.org/1999/xlink" xmlns:svgjs="http://svgjs.com/svgjs" width="1440" height="560" preserveAspectRatio="none" viewBox="0 0 1440 560"><g mask="url(&quot;#SvgjsMask1112&quot;)" fill="none"><rect width="1440" height="560" x="0" y="0" fill="rgba(41, 40, 41, 1)"></rect><path d="M33.02 -0.49L67.66 19.51L67.66 59.51L33.02 79.51L-1.62 59.51L-1.62 19.51zM67.66 299.51L102.3 319.51L102.3 359.51L67.66 379.51L33.02 359.51L33.02 319.51zM33.02 359.51L67.66 379.51L67.66 419.51L33.02 439.51L-1.62 419.51L-1.62 379.51zM33.02 479.51L67.66 499.51L67.66 539.51L33.02 559.51L-1.62 539.51L-1.62 499.51zM102.3 119.51L136.95 139.51L136.95 179.51L102.3 199.51L67.66 179.51L67.66 139.51zM136.95 179.51L171.59 199.51L171.59 239.51L136.95 259.51L102.3 239.51L102.3 199.51zM136.95 539.51L171.59 559.51L171.59 599.51L136.95 619.51L102.3 599.51L102.3 559.51zM206.23 299.51L240.87 319.51L240.87 359.51L206.23 379.51L171.59 359.51L171.59 319.51zM171.59 359.51L206.23 379.51L206.23 419.51L171.59 439.51L136.95 419.51L136.95 379.51zM206.23 539.51L240.87 559.51L240.87 599.51L206.23 619.51L171.59 599.51L171.59 559.51zM275.51 179.51L310.16 199.51L310.16 239.51L275.51 259.51L240.87 239.51L240.87 199.51zM240.87 239.51L275.51 259.51L275.51 299.51L240.87 319.51L206.23 299.51L206.23 259.51zM310.16 -0.49L344.8 19.51L344.8 59.51L310.16 79.51L275.51 59.51L275.51 19.51zM344.8 299.51L379.44 319.51L379.44 359.51L344.8 379.51L310.16 359.51L310.16 319.51zM344.8 419.51L379.44 439.51L379.44 479.51L344.8 499.51L310.16 479.51L310.16 439.51zM379.44 -0.49L414.08 19.51L414.08 59.51L379.44 79.51L344.8 59.51L344.8 19.51zM448.72 119.51L483.37 139.51L483.37 179.51L448.72 199.51L414.08 179.51L414.08 139.51zM552.65 59.51L587.29 79.51L587.29 119.51L552.65 139.51L518.01 119.51L518.01 79.51zM552.65 299.51L587.29 319.51L587.29 359.51L552.65 379.51L518.01 359.51L518.01 319.51zM552.65 419.51L587.29 439.51L587.29 479.51L552.65 499.51L518.01 479.51L518.01 439.51zM621.93 539.51L656.58 559.51L656.58 599.51L621.93 619.51L587.29 599.51L587.29 559.51zM691.22 179.51L725.86 199.51L725.86 239.51L691.22 259.51L656.58 239.51L656.58 199.51zM691.22 419.51L725.86 439.51L725.86 479.51L691.22 499.51L656.58 479.51L656.58 439.51zM725.86 239.51L760.5 259.51L760.5 299.51L725.86 319.51L691.22 299.51L691.22 259.51zM829.79 299.51L864.43 319.51L864.43 359.51L829.79 379.51L795.14 359.51L795.14 319.51zM829.79 419.51L864.43 439.51L864.43 479.51L829.79 499.51L795.14 479.51L795.14 439.51zM795.14 479.51L829.79 499.51L829.79 539.51L795.14 559.51L760.5 539.51L760.5 499.51zM899.07 419.51L933.71 439.51L933.71 479.51L899.07 499.51L864.43 479.51L864.43 439.51zM899.07 539.51L933.71 559.51L933.71 599.51L899.07 619.51L864.43 599.51L864.43 559.51zM933.71 -0.49L968.35 19.51L968.35 59.51L933.71 79.51L899.07 59.51L899.07 19.51zM968.35 179.51L1003 199.51L1003 239.51L968.35 259.51L933.71 239.51L933.71 199.51zM933.71 239.51L968.35 259.51L968.35 299.51L933.71 319.51L899.07 299.51L899.07 259.51zM968.35 299.51L1003 319.51L1003 359.51L968.35 379.51L933.71 359.51L933.71 319.51zM1003 119.51L1037.64 139.51L1037.64 179.51L1003 199.51L968.35 179.51L968.35 139.51zM1037.64 179.51L1072.28 199.51L1072.28 239.51L1037.64 259.51L1003 239.51L1003 199.51zM1003 239.51L1037.64 259.51L1037.64 299.51L1003 319.51L968.35 299.51L968.35 259.51zM1106.92 59.51L1141.56 79.51L1141.56 119.51L1106.92 139.51L1072.28 119.51L1072.28 79.51zM1176.21 59.51L1210.85 79.51L1210.85 119.51L1176.21 139.51L1141.56 119.51L1141.56 79.51zM1141.56 119.51L1176.21 139.51L1176.21 179.51L1141.56 199.51L1106.92 179.51L1106.92 139.51zM1141.56 239.51L1176.21 259.51L1176.21 299.51L1141.56 319.51L1106.92 299.51L1106.92 259.51zM1141.56 359.51L1176.21 379.51L1176.21 419.51L1141.56 439.51L1106.92 419.51L1106.92 379.51zM1176.21 419.51L1210.85 439.51L1210.85 479.51L1176.21 499.51L1141.56 479.51L1141.56 439.51zM1349.42 119.51L1384.06 139.51L1384.06 179.51L1349.42 199.51L1314.77 179.51L1314.77 139.51zM1384.06 419.51L1418.7 439.51L1418.7 479.51L1384.06 499.51L1349.42 479.51L1349.42 439.51zM1453.34 59.51L1487.98 79.51L1487.98 119.51L1453.34 139.51L1418.7 119.51L1418.7 79.51z" stroke="rgba(2, 52, 54, 1)" stroke-width="2"></path><path d="M16.67 -11.89L85.95 28.11L85.95 108.11L16.67 148.11L-52.61 108.11L-52.61 28.11zM16.67 468.11L85.95 508.11L85.95 588.11L16.67 628.11L-52.61 588.11L-52.61 508.11zM224.52 108.11L293.81 148.11L293.81 228.11L224.52 268.11L155.24 228.11L155.24 148.11zM432.37 -11.89L501.66 28.11L501.66 108.11L432.37 148.11L363.09 108.11L363.09 28.11zM432.37 468.11L501.66 508.11L501.66 588.11L432.37 628.11L363.09 588.11L363.09 508.11zM640.23 108.11L709.51 148.11L709.51 228.11L640.23 268.11L570.94 228.11L570.94 148.11zM640.23 348.11L709.51 388.11L709.51 468.11L640.23 508.11L570.94 468.11L570.94 388.11zM778.79 348.11L848.08 388.11L848.08 468.11L778.79 508.11L709.51 468.11L709.51 388.11zM709.51 468.11L778.79 508.11L778.79 588.11L709.51 628.11L640.23 588.11L640.23 508.11zM848.08 -11.89L917.36 28.11L917.36 108.11L848.08 148.11L778.79 108.11L778.79 28.11zM848.08 228.11L917.36 268.11L917.36 348.11L848.08 388.11L778.79 348.11L778.79 268.11zM986.65 -11.89L1055.93 28.11L1055.93 108.11L986.65 148.11L917.36 108.11L917.36 28.11zM1055.93 348.11L1125.21 388.11L1125.21 468.11L1055.93 508.11L986.65 468.11L986.65 388.11zM1194.5 348.11L1263.78 388.11L1263.78 468.11L1194.5 508.11L1125.21 468.11L1125.21 388.11zM1125.21 468.11L1194.5 508.11L1194.5 588.11L1125.21 628.11L1055.93 588.11L1055.93 508.11zM1333.07 348.11L1402.35 388.11L1402.35 468.11L1333.07 508.11L1263.78 468.11L1263.78 388.11zM1471.63 348.11L1540.92 388.11L1540.92 468.11L1471.63 508.11L1402.35 468.11L1402.35 388.11zM1402.35 468.11L1471.63 508.11L1471.63 588.11L1402.35 628.11L1333.07 588.11L1333.07 508.11z" stroke="rgba(3, 121, 113, 0.6)" stroke-width="2"></path></g><defs><mask id="SvgjsMask1112"><rect width="1440" height="560" fill="#ffffff"></rect></mask></defs></svg>