<svg xmlns="http://www.w3.org/2000/svg" version="1.1" xmlns:xlink="http://www.w3.org/1999/xlink" xmlns:svgjs="http://svgjs.com/svgjs" width="1440" height="560" preserveAspectRatio="none" viewBox="0 0 1440 560"><g mask="url(&quot;#SvgjsMask1006&quot;)" fill="none"><rect width="1440" height="560" x="0" y="0" fill="rgba(41, 40, 41, 1)"></rect><path d="M -84.81619764413483,466 C 11.18,395 203.18,113.8 395.18380235586517,111 C 587.18,108.2 683.18,460.2 875.1838023558652,452 C 1067.18,443.8 1163.18,61.8 1355.1838023558653,70 C 1547.18,78.2 1818.22,491.8 1835.1838023558653,493 C 1852.15,494.2 1519.04,159.4 1440,76" stroke="rgba(3, 181, 170, 1)" stroke-width="2"></path><path d="M -270.13949402071034,158 C -174.14,202.2 17.86,388.2 209.86050597928966,379 C 401.86,369.8 497.86,100 689.8605059792897,112 C 881.86,124 977.86,414.8 1169.8605059792897,439 C 1361.86,463.2 1595.83,252.2 1649.8605059792897,233 C 1703.89,213.8 1481.97,321 1440,343" stroke="rgba(3, 181, 170, 1)" stroke-width="2"></path><path d="M -101.88788679367491,109 C -5.89,146 186.11,271 378.1121132063251,294 C 570.11,317 666.11,206.4 858.1121132063251,224 C 1050.11,241.6 1146.11,372.4 1338.1121132063251,382 C 1530.11,391.6 1797.73,286.8 1818.1121132063251,272 C 1838.49,257.2 1515.62,300.8 1440,308" stroke="rgba(3, 181, 170, 1)" stroke-width="2"></path><path d="M -646.8841081629369,404 C -550.88,365.8 -358.88,205.4 -166.88410816293683,213 C 25.12,220.6 121.12,434 313.11589183706315,442 C 505.12,450 601.12,242.4 793.1158918370631,253 C 985.12,263.6 1143.74,513.6 1273.1158918370631,495 C 1402.49,476.4 1406.62,227 1440,160" stroke="rgba(3, 181, 170, 1)" stroke-width="2"></path></g><defs><mask id="SvgjsMask1006"><rect width="1440" height="560" fill="#ffffff"></rect></mask></defs></svg>